<?xml version="1.0" standalone="no"?>
<!DOCTYPE svg PUBLIC "-//W3C//DTD SVG 20010904//EN"
 "http://www.w3.org/TR/2001/REC-SVG-20010904/DTD/svg10.dtd">
<svg version="1.0" xmlns="http://www.w3.org/2000/svg"
 width="512.000000pt" height="512.000000pt" viewBox="0 0 512.000000 512.000000"
 preserveAspectRatio="xMidYMid meet">

<g transform="translate(0.000000,512.000000) scale(0.100000,-0.100000)"
fill="#002251" stroke="none">
<path d="M1960 5109 c-14 -6 -38 -22 -53 -37 -32 -30 -1728 -2358 -1766 -2424
-34 -58 -32 -126 6 -185 69 -108 1747 -2405 1769 -2422 35 -28 91 -44 128 -38
47 8 2835 913 2874 934 19 9 44 35 58 58 l24 41 0 1520 c0 836 -2 1529 -6
1540 -14 39 -53 80 -91 97 -101 43 -2849 927 -2882 926 -20 0 -47 -5 -61 -10z"/>
</g>
</svg>
